<?xml version="1.0" encoding="utf-8"?>
<!-- Generator: Adobe Illustrator 19.2.1, SVG Export Plug-In . SVG Version: 6.00 Build 0)  -->
<svg version="1.1" id="Layer_1" xmlns="http://www.w3.org/2000/svg" xmlns:xlink="http://www.w3.org/1999/xlink" x="0px" y="0px"
	 viewBox="0 0 2000 2000" style="enable-background:new 0 0 2000 2000;" xml:space="preserve">
<style type="text/css">
	.st0{fill:#FFFFFF;}
</style>
<g>
	<g>
		<path class="st0" d="M269.2,1102.1v23.2c0,3.2-1.1,6-3.4,8.2c-2.2,2.2-5,3.4-8.2,3.4H83.4c-3.2,0-6-1.1-8.2-3.4
			c-2.2-2.2-3.4-5-3.4-8.2v-251c0-3.2,1.1-6,3.4-8.2s5-3.4,8.2-3.4h29.2c3.2,0,6,1.1,8.2,3.4c2.2,2.2,3.4,5,3.4,8.2v204.5
			c0,3.2,1.1,6,3.4,8.2c2.2,2.2,5,3.4,8.2,3.4h121.7c3.2,0,6,1.1,8.2,3.4C268.1,1096.1,269.2,1098.9,269.2,1102.1z"/>
		<path class="st0" d="M371.4,1133.6c-15-5.7-27.3-13.5-37.1-23.2c-10.5-10-18.5-22.1-24-36.3c-5.5-14-8.2-29.8-8.2-47.6v-63.4
			c0-3.2,1.1-6,3.4-8.2c2.2-2.2,4.9-3.4,7.9-3.4H343c3.2,0,6,1.1,8.2,3.4c2.2,2.2,3.4,5,3.4,8.2v63c0,13.7,2.2,25.1,6.7,34.1
			c4.5,8.7,10,15.9,16.5,21.3c7,5.5,14.1,9.1,21.3,10.9c4,1,7.7,1.8,11,2.2c3.4,0.5,6.6,0.7,9.6,0.7c5.5,0,12.2-1,20.2-3
			c7.7-1.7,14.9-5.4,21.3-10.9c6.7-5.2,12.4-12.4,16.9-21.3c4.5-9,6.7-20.3,6.7-34.1v-63c0-3.2,1.1-6,3.4-8.2c2.2-2.2,5-3.4,8.2-3.4
			h29.2c3.2,0,6,1.1,8.2,3.4c2.2,2.2,3.4,5,3.4,8.2v63.4c0,8.7-0.7,17-2.1,24.9c-1.4,7.9-3.4,15.4-6.2,22.7
			c-5.5,14-13.4,26.1-23.6,36.3c-10,9.7-22.4,17.5-37.1,23.2c-14.2,5.5-30.5,8.2-48.7,8.2C401.5,1141.8,385.4,1139.1,371.4,1133.6z"
			/>
		<path class="st0" d="M794.7,956.8c-2.5,6.5-5.5,12.2-9,17.2c-3.7,5.2-8.5,9.6-14.2,13.1c-2.5,1.8-5.4,3.2-8.6,4.5
			c-2.5,0.7-3.6,1.3-3.4,1.7c0.2,0.4,1.7,0.9,4.5,1.7c3.5,1.3,6.7,2.5,9.7,3.7c6.5,3.2,12.4,7.9,17.6,13.9
			c5.5,5.7,9.9,12.4,13.1,19.9c3.2,7.2,4.9,15.1,4.9,23.6c0,15-2.2,27.7-6.7,38.2c-4.7,10.7-10.9,19.1-18.4,25.1
			c-7.5,6.5-16.5,11-27,13.5c-5.2,1.3-10.6,2.2-16.1,3c-5.5,0.7-11.2,1.1-17.2,1.1h-115c-3.2,0-6-1.1-8.2-3.4
			c-2.2-2.2-3.4-5-3.4-8.2v-251c0-3.2,1.1-6,3.4-8.2s5-3.4,8.2-3.4h109c5.7,0,11.1,0.3,16.1,0.7c5,0.5,10,1.3,15,2.2
			c10.2,2.5,18.7,6.5,25.5,12c7.5,5.5,13.2,13.2,17.2,23.2c4.2,9.2,6.4,21.9,6.4,37.8C798,944.6,796.9,950.5,794.7,956.8z
			 M661.3,974.4h52.8c5.2,0,9.9-1,13.9-3c3.5-1.7,6.7-4.4,9.7-7.9c2.5-3,4.5-6.7,6-11.2c1.2-3.5,1.9-7.6,1.9-12.4
			c0-4-0.7-7.9-2.2-11.6c-1.8-4.2-3.7-7.5-6-9.7c-2.2-2.5-5.1-4.7-8.6-6.7c-3.2-1.7-6.9-2.6-10.9-2.6h-56.6c-3.2,0-6,1.1-8.2,3.4
			c-2.2,2.2-3.4,5-3.4,8.2v42c0,3.2,1.1,6,3.4,8.2C655.3,973.3,658.1,974.4,661.3,974.4z M736.6,1087.1c3.7-1.7,7.2-4.6,10.5-8.6
			c3.2-3.7,5.6-7.7,7.1-12c1.7-3.7,2.6-8.1,2.6-13.1c0-9-3.4-16.7-10.1-23.2c-6.5-6.2-16-9.4-28.5-9.4h-56.9c-3.2,0-6,1.1-8.2,3.4
			c-2.2,2.2-3.4,5-3.4,8.2v46.4c0,3.2,1.1,6,3.4,8.2c2.2,2.2,5,3.4,8.2,3.4h62.6C728.6,1090.5,732.9,1089.4,736.6,1087.1z"/>
		<path class="st0" d="M1064.7,872.9c-2.8,4.5-5.6,9.2-8.6,14c-3,4.9-6.2,10.1-9.7,15.5c-4.5,7.2-9.1,14.6-13.7,22.1
			c-4.6,7.5-9.3,15.1-14,22.8c-5,7.7-9.8,15.4-14.4,23c-4.6,7.6-9.2,15-13.7,22.3c-3.5,5.5-6.8,10.7-9.9,15.7
			c-3.1,5-6.1,9.9-8.8,14.6c-1.8,2.8-3.1,6.2-4.1,10.5c-1,4.2-1.5,8-1.5,11.2v80.5c0,3.2-1.1,6-3.4,8.2c-2.2,2.2-5,3.4-8.2,3.4H925
			c-3.2,0-5.9-1.1-8.1-3.4c-2.1-2.2-3.2-5-3.2-8.2v-80.5c0-3.2-0.6-7-1.7-11.2c-1.1-4.2-2.6-7.7-4.3-10.5
			c-7.2-12.7-14.7-25.3-22.3-37.6c-7.6-12.4-15.4-24.8-23.4-37.3c-8.2-12.7-16.2-25.3-24-37.6c-7.7-12.4-15.2-24.9-22.5-37.6
			c-1.8-2.7-2.1-5.1-0.9-6.9c1.1-1.9,3.3-2.8,6.6-2.8h38.2c3.2,0,6.6,0.9,9.9,2.8c3.4,1.9,5.8,4.2,7.3,6.9c4.7,8,9.5,16,14.2,24
			c4.7,8,9.6,16.1,14.6,24.3c4.7,8.2,9.5,16.4,14.2,24.3c4.7,8,9.5,16,14.2,24c1.5,2.8,3.4,4.1,5.8,4.1c2.4,0,4.4-1.4,6.2-4.1
			c1.7-3,3.6-6,5.4-9c1.9-3,3.8-6.1,5.8-9.4l18-30.3c3-5,5.9-10,8.8-15c2.9-5,5.8-10,8.8-15c2-3,3.9-6,5.6-9c1.7-3,3.5-6,5.2-9
			c1.5-2.7,3.9-5.1,7.3-6.9c3.4-1.9,6.7-2.8,9.9-2.8h38.2c3.2,0,5.4,0.9,6.4,2.8C1066.5,867.8,1066.2,870.1,1064.7,872.9z"/>
		<path class="st0" d="M1328.1,1079.3c-2.5,3.5-5.1,6.9-7.7,10.3c-2.6,3.4-5.4,6.6-8.4,9.6c-8.2,8.7-18,16.4-29.2,22.8
			c-5.2,3.2-10.7,6.1-16.5,8.6c-5.7,2.5-11.7,4.6-18,6.4c-12.7,3.5-25.5,5.2-38.2,5.2c-19.5,0-37.8-3.7-55.1-11.2
			s-32.3-17.7-45.3-30.7c-12.7-12.7-22.8-27.7-30.3-44.9c-7.5-17.2-11.2-35.6-11.2-55.1c0-19.5,3.7-37.8,11.2-55.1
			c7.5-17,17.6-32.1,30.3-45.3c13.2-12.7,28.3-22.8,45.3-30.3c17.2-7.5,35.6-11.2,55.1-11.2c12.7,0,25.5,1.7,38.2,5.2
			c12.5,3.5,24,8.4,34.5,14.6c5.5,3.2,10.7,6.8,15.5,10.7c4.9,3.9,9.4,7.9,13.7,12.2c6.2,6.5,11.6,13.1,16.1,19.9
			c1.7,2.8,2.1,5.4,1.1,8.1c-1,2.6-3,4.6-6,5.8l-27.7,11.2c-2.7,1.3-5.8,1.4-9.2,0.6c-3.4-0.9-6.1-2.6-8.1-5.1
			c-1.3-1.2-2.5-2.6-3.7-3.9c-1.3-1.4-2.5-2.7-3.7-3.9c-2.8-2.7-5.6-5.2-8.4-7.5c-2.9-2.2-5.9-4.4-9.2-6.4c-3.2-2-6.6-3.7-10.1-5.2
			c-3.5-1.5-7-2.9-10.5-4.1c-7.2-2.2-14.7-3.4-22.5-3.4c-12.2,0-24,2.5-35.2,7.5c-11,5.2-20.4,12.1-28.1,20.6
			c-8,8.7-14.4,18.6-19.1,29.6c-4.7,11.2-7.1,23.1-7.1,35.6c0,12.7,2.4,24.6,7.1,35.6c4.7,11,11.1,20.9,19.1,29.6
			c7.7,8.7,17.1,15.5,28.1,20.2c10.7,5.2,22.5,7.9,35.2,7.9c7.7,0,15.2-1.1,22.5-3.4c3.5-1.2,7-2.6,10.5-4.1
			c3.5-1.5,6.9-3.2,10.1-5.2c3.2-2,6.3-4.2,9.2-6.6c2.9-2.4,5.7-4.9,8.4-7.7c1.2-1.2,2.5-2.6,3.7-3.9c1.2-1.4,2.5-2.7,3.7-3.9
			c2-2.5,4.7-4.2,8.1-5.2c3.4-1,6.4-0.9,9.2,0.4l27.7,11.2c3,1.3,5,3.2,6,6C1330.2,1073.8,1329.8,1076.5,1328.1,1079.3z"/>
		<path class="st0" d="M1502.6,1142.2c-19.5,0-37.8-3.7-55.1-11.2c-17.2-7.5-32.3-17.7-45.1-30.5c-12.9-12.9-23-27.9-30.5-45.1
			c-7.5-17.2-11.2-35.7-11.2-55.4c0-19.5,3.7-37.9,11.2-55.2c7.5-17.4,17.7-32.5,30.5-45.3c12.9-12.9,27.9-23,45.1-30.5
			c17.2-7.5,35.6-11.2,55.1-11.2c19.7,0,38.2,3.7,55.4,11.2c17.2,7.5,32.3,17.7,45.1,30.5c12.9,12.9,23,28,30.5,45.3
			c7.5,17.4,11.2,35.8,11.2,55.2c0,19.7-3.7,38.2-11.2,55.4c-7.5,17.2-17.7,32.3-30.5,45.1c-12.9,12.9-27.9,23-45.1,30.5
			S1522.3,1142.2,1502.6,1142.2z M1502.8,906.6c-12.5,0-24.1,2.6-35,7.7c-10.8,5.1-20.3,11.9-28.4,20.4
			c-8.1,8.5-14.5,18.4-19.2,29.8c-4.7,11.4-7.1,23.2-7.1,35.4c0,12.5,2.4,24.3,7.1,35.6s11.1,21.2,19.2,29.8
			c8.1,8.6,17.6,15.5,28.4,20.6c10.8,5.1,22.5,7.7,35,7.7c12.5,0,24.1-2.6,34.9-7.7c10.8-5.1,20.3-12,28.4-20.6
			c8.1-8.6,14.5-18.5,19.2-29.8c4.7-11.2,7.1-23.1,7.1-35.6c0-12.2-2.4-24-7.1-35.4c-4.7-11.4-11.1-21.3-19.2-29.8
			c-8.1-8.5-17.6-15.3-28.4-20.4C1526.9,909.2,1515.2,906.6,1502.8,906.6z"/>
		<path class="st0" d="M1743.8,985.6v139.7c0,3.2-1.1,6-3.4,8.2c-2.2,2.2-5,3.4-8.2,3.4h-29.6c-3,0-5.6-1.1-7.9-3.4
			c-2.2-2.2-3.4-5-3.4-8.2V869.1c0-3.2,1.6-5.2,4.7-5.8c3.1-0.6,5.8,0.1,8.1,2.1l164.4,155.4c2.5,2.2,4.6,3,6.2,2.2
			c1.6-0.7,2.4-2.7,2.4-6V874.8c0-3.2,1.1-6,3.4-8.2c2.2-2.2,5-3.4,8.2-3.4h29.2c3.2,0,6,1.1,8.2,3.4c2.2,2.2,3.4,5,3.4,8.2v255.8
			c0,3.2-1.6,5.2-4.7,5.8c-3.1,0.6-5.9-0.1-8.4-2.1l-164.1-152.8c-2.5-2-4.6-2.6-6.2-1.9C1744.6,980.4,1743.8,982.4,1743.8,985.6z"
			/>
	</g>
	<path class="st0" d="M346.6,920.6h-36.4c-4.4,0-8-3.6-8-8v-41.5c0-4.4,3.6-8,8-8h36.4c4.4,0,8,3.6,8,8v41.5
		C354.6,917,351,920.6,346.6,920.6z"/>
	<path class="st0" d="M529.4,920.6h-36.4c-4.4,0-8-3.6-8-8v-41.5c0-4.4,3.6-8,8-8h36.4c4.4,0,8,3.6,8,8v41.5
		C537.4,917,533.8,920.6,529.4,920.6z"/>
</g>
</svg>
