<?xml version="1.0" encoding="utf-8"?>
<!-- Generator: Adobe Illustrator 19.2.1, SVG Export Plug-In . SVG Version: 6.00 Build 0)  -->
<svg version="1.1" id="Layer_1" xmlns="http://www.w3.org/2000/svg" xmlns:xlink="http://www.w3.org/1999/xlink" x="0px" y="0px"
	 viewBox="0 0 2000 2000" style="enable-background:new 0 0 2000 2000;" xml:space="preserve">
<style type="text/css">
	.st0{fill:#FFFFFF;}
</style>
<path class="st0" d="M1658.1,614.1l-560.1-442c-6.4-5.1-15.1-6-22.5-2.4c-7.3,3.6-12,11-12,19.1v90.1L928.4,172.1
	c-7.7-6.1-18.7-6.1-26.4,0L341.9,614.9c-0.2,0.2-0.4,0.4-0.6,0.5c-0.3,0.2-0.5,0.4-0.8,0.7c-0.5,0.4-0.9,0.9-1.3,1.3
	c-0.2,0.2-0.4,0.4-0.6,0.6c-0.6,0.7-1.1,1.4-1.6,2.2c0,0.1-0.1,0.2-0.1,0.2c-0.4,0.7-0.8,1.4-1.1,2.1c-0.1,0.3-0.2,0.5-0.3,0.8
	c-0.2,0.6-0.4,1.1-0.6,1.7c-0.1,0.3-0.2,0.6-0.3,0.9c-0.2,0.6-0.3,1.2-0.4,1.8c-0.1,0.3-0.1,0.6-0.1,0.9c-0.1,0.9-0.2,1.8-0.2,2.7
	c0,0,0,0,0,0.1v639c0,6.5,3,12.7,8.1,16.7l560.1,442c3.8,3,8.5,4.6,13.2,4.6c3.2,0,6.3-0.7,9.3-2.1c7.3-3.6,12-11,12-19.1v-90.1
	l135.1,106.8c3.9,3.1,8.5,4.6,13.2,4.6c4.7,0,9.3-1.5,13.2-4.6l560.1-442.8c0.2-0.2,0.4-0.4,0.6-0.5c0.3-0.2,0.5-0.4,0.8-0.7
	c0.5-0.4,0.9-0.9,1.3-1.3c0.2-0.2,0.4-0.4,0.6-0.6c0.6-0.7,1.1-1.4,1.6-2.2c0-0.1,0.1-0.1,0.1-0.2c0.4-0.7,0.8-1.4,1.2-2.2
	c0.1-0.3,0.2-0.5,0.3-0.8c0.2-0.6,0.5-1.2,0.6-1.7c0.1-0.3,0.2-0.6,0.3-0.9c0.2-0.6,0.3-1.2,0.4-1.8c0.1-0.3,0.1-0.6,0.1-0.9
	c0.1-0.9,0.2-1.8,0.2-2.7c0,0,0,0,0-0.1v-639C1666.2,624.2,1663.2,618.1,1658.1,614.1z M1106.1,232.7l517.6,408.4v584.8l-434.1-342
	l299-235.6c5.1-4,8.1-10.2,8.1-16.7c0-6.5-3-12.7-8.1-16.7l-382.6-302.4V232.7z M893.9,1083.3v451.3l-335-264.8l285.9-225.2
	L893.9,1083.3z M915.2,1045.9l-36-28.4l205.6-162l32.5,25.6l3.5,2.8L915.2,1045.9z M1106.1,818.1V366.8l335,264.8l-285.9,225.2
	L1106.1,818.1z M915.2,215.9l148.3,117.3v485L844.8,990.4L528.2,741L389.4,631.6L915.2,215.9z M893.9,1668.7l-517.6-408.4V675.5
	l120.2,94.7l313.9,247.3L511.4,1253c-5.1,4-8.1,10.2-8.1,16.7c0,6.5,3,12.7,8.1,16.7l382.6,302.4V1668.7z M1084.8,1685.5
	l-148.3-117.2v-485L1155.2,911l455.4,358.8L1084.8,1685.5z"/>
</svg>
