<?xml version="1.0" encoding="utf-8"?>
<!-- Generator: Adobe Illustrator 16.0.0, SVG Export Plug-In . SVG Version: 6.00 Build 0)  -->
<!DOCTYPE svg PUBLIC "-//W3C//DTD SVG 1.1//EN" "http://www.w3.org/Graphics/SVG/1.1/DTD/svg11.dtd">
<svg version="1.1" id="Layer_1" xmlns="http://www.w3.org/2000/svg" xmlns:xlink="http://www.w3.org/1999/xlink" x="0px" y="0px"
	 width="1823.248px" height="313.86px" viewBox="48.376 392.279 1823.248 313.86"
	 enable-background="new 48.376 392.279 1823.248 313.86" xml:space="preserve">
<g>
	<path fill="#FFFFFF" d="M313.754,481.833l-112.101-88.495c-1.27-1.059-3.07-1.164-4.552-0.529
		c-1.482,0.741-2.435,2.223-2.435,3.811v17.995l-26.993-21.383c-1.587-1.27-3.705-1.27-5.292,0L50.281,481.938c0,0,0,0,0,0.105
		c-0.212,0.212-0.423,0.424-0.635,0.636c0,0,0,0.105-0.106,0.105c-0.105,0.212-0.317,0.424-0.423,0.636c0,0,0,0.105-0.106,0.105
		c-0.105,0.212-0.211,0.529-0.317,0.741c0,0.105-0.106,0.105-0.106,0.211c-0.106,0.318-0.211,0.529-0.211,0.848v127.873
		c0,1.27,0.635,2.54,1.693,3.387l112.207,88.495c0.741,0.635,1.694,0.953,2.646,0.953c0.635,0,1.165-0.106,1.799-0.424
		c1.482-0.741,2.329-2.223,2.329-3.811v-17.995l27.099,21.382c0.741,0.636,1.694,0.953,2.646,0.953s1.905-0.317,2.646-0.953
		l112.101-88.601c0,0,0,0,0.105-0.105c0.212-0.212,0.424-0.424,0.635-0.635c0,0,0-0.106,0.106-0.106
		c0.106-0.212,0.317-0.423,0.423-0.635c0,0,0-0.106,0.106-0.106c0.106-0.211,0.212-0.529,0.317-0.74c0-0.106,0-0.106,0-0.212
		c0.106-0.317,0-0.529,0-0.847V485.114C315.342,483.844,314.813,482.573,313.754,481.833z M203.136,405.405l103.738,81.72v117.076
		l-86.801-68.488l59.914-47.105c1.059-0.847,1.588-2.012,1.588-3.388s-0.741-2.54-1.694-3.387l-76.639-60.55v-15.878H203.136z
		 M160.794,575.727v90.399l-67.006-53.033l57.162-45.094L160.794,575.727z M165.134,568.21l-7.198-5.716l41.178-32.392l7.198,5.716
		L165.134,568.21z M203.136,522.587v-90.295l67.218,53.034l-57.268,45.094L203.136,522.587z M165.028,402.124l29.639,23.499v97.069
		l-43.718,34.509l-55.786-44.035l-35.355-27.84L165.028,402.124z M160.794,692.907l-103.738-81.72V494.111l20.113,15.772
		l67.006,52.716l-59.914,47.105c-1.059,0.848-1.588,2.012-1.588,3.388c0,1.271,0.529,2.541,1.588,3.388l76.533,60.549V692.907z
		 M199.008,696.295l-29.746-23.5v-97.068l43.824-34.509l91.141,71.875L199.008,696.295z"/>
	<g>
		<g>
			<path fill="#FFFFFF" d="M578.181,628.865v18.102c0,2.54-0.847,4.657-2.646,6.457s-3.917,2.646-6.457,2.646H433.477
				c-2.54,0-4.657-0.847-6.457-2.646s-2.646-3.917-2.646-6.457V451.452c0-2.54,0.847-4.657,2.646-6.457s3.917-2.646,6.457-2.646
				h22.759c2.541,0,4.658,0.847,6.457,2.646c1.8,1.8,2.646,3.917,2.646,6.457v159.312c0,2.541,0.847,4.658,2.646,6.458
				c1.8,1.799,3.917,2.646,6.457,2.646h94.847c2.54,0,4.657,0.848,6.457,2.646C577.334,624.208,578.181,626.325,578.181,628.865z"/>
			<path fill="#FFFFFF" d="M657.89,653.318c-11.645-4.446-21.277-10.48-28.898-18.102c-8.151-7.728-14.396-17.255-18.631-28.264
				c-4.234-10.903-6.457-23.288-6.457-37.049v-49.329c0-2.54,0.847-4.657,2.646-6.457c1.8-1.799,3.811-2.646,6.14-2.646h23.076
				c2.541,0,4.658,0.848,6.457,2.646c1.8,1.8,2.646,3.917,2.646,6.457v49.117c0,10.691,1.8,19.583,5.293,26.569
				c3.493,6.775,7.728,12.386,12.809,16.619c5.398,4.234,11.009,7.093,16.619,8.469c3.069,0.741,6.034,1.376,8.574,1.8
				c2.646,0.423,5.081,0.635,7.41,0.635c4.233,0,9.526-0.741,15.772-2.329c6.033-1.376,11.538-4.128,16.619-8.468
				c5.293-4.129,9.633-9.633,13.126-16.619s5.293-15.879,5.293-26.57v-49.116c0-2.541,0.847-4.658,2.646-6.457
				c1.8-1.8,3.917-2.646,6.458-2.646h22.547c2.54,0,4.657,0.847,6.457,2.646c1.8,1.799,2.646,3.916,2.646,6.457v49.328
				c0,6.774-0.529,13.232-1.588,19.372s-2.646,11.961-4.764,17.678c-4.234,10.902-10.374,20.324-18.419,28.263
				c-7.833,7.622-17.36,13.655-28.898,18.102c-11.114,4.234-23.711,6.457-37.896,6.457
				C681.283,659.775,668.792,657.658,657.89,653.318z"/>
			<path fill="#FFFFFF" d="M987.628,515.601c-1.905,5.081-4.234,9.526-6.986,13.443c-2.964,4.128-6.563,7.516-11.114,10.162
				c-1.905,1.376-4.234,2.54-6.669,3.493c-1.906,0.635-2.858,1.059-2.646,1.271c0.212,0.317,1.376,0.741,3.493,1.271
				c2.752,0.952,5.293,1.905,7.621,2.964c5.081,2.54,9.633,6.14,13.762,10.797c4.234,4.446,7.728,9.633,10.162,15.455
				c2.54,5.61,3.811,11.75,3.811,18.419c0,11.644-1.8,21.594-5.293,29.745c-3.705,8.362-8.468,14.926-14.29,19.583
				c-5.822,5.081-12.809,8.574-20.959,10.479c-4.129,0.953-8.258,1.8-12.598,2.329c-4.234,0.635-8.785,0.847-13.443,0.847h-89.554
				c-2.54,0-4.657-0.847-6.457-2.646s-2.646-3.917-2.646-6.457V451.452c0-2.54,0.847-4.657,2.646-6.457s3.917-2.646,6.457-2.646
				h84.896c4.445,0,8.68,0.212,12.597,0.635c3.916,0.424,7.728,0.953,11.644,1.8c7.939,1.905,14.608,5.081,19.795,9.315
				c5.822,4.234,10.269,10.268,13.444,18.102c3.281,7.198,4.975,17.042,4.975,29.428
				C990.169,506.073,989.321,510.731,987.628,515.601z M883.679,529.361h41.178c4.128,0,7.727-0.741,10.797-2.328
				c2.752-1.377,5.293-3.388,7.621-6.14c1.906-2.329,3.494-5.293,4.658-8.786c0.953-2.753,1.482-5.928,1.482-9.633
				c0-3.07-0.636-6.14-1.8-8.998c-1.376-3.281-2.964-5.822-4.658-7.621c-1.8-1.906-4.022-3.705-6.669-5.293
				c-2.54-1.376-5.398-2.012-8.468-2.012h-44.036c-2.54,0-4.657,0.848-6.457,2.646c-1.8,1.8-2.646,3.917-2.646,6.457v32.71
				c0,2.54,0.847,4.657,2.646,6.457C879.021,528.409,881.138,529.361,883.679,529.361z M942.322,617.115
				c2.964-1.376,5.61-3.599,8.15-6.669c2.541-2.964,4.341-6.033,5.505-9.315c1.376-2.964,2.012-6.351,2.012-10.162
				c0-6.986-2.646-13.02-7.834-18.101c-5.081-4.869-12.49-7.304-22.123-7.304h-44.354c-2.541,0-4.658,0.847-6.457,2.646
				c-1.8,1.8-2.646,3.917-2.646,6.458v36.096c0,2.541,0.847,4.658,2.646,6.458c1.799,1.799,3.916,2.646,6.457,2.646h48.693
				C936.077,619.762,939.464,618.915,942.322,617.115z"/>
			<path fill="#FFFFFF" d="M1197.962,450.288c-2.117,3.493-4.34,7.198-6.669,10.902c-2.329,3.705-4.869,7.834-7.621,12.068
				c-3.493,5.61-7.093,11.432-10.691,17.254s-7.198,11.75-10.903,17.784c-3.916,6.033-7.621,11.961-11.221,17.995
				c-3.599,5.928-7.198,11.75-10.691,17.36c-2.752,4.233-5.293,8.362-7.728,12.279c-2.435,3.916-4.763,7.727-6.88,11.432
				c-1.377,2.117-2.436,4.869-3.176,8.151c-0.741,3.281-1.164,6.245-1.164,8.786v62.771c0,2.541-0.848,4.658-2.646,6.457
				c-1.8,1.8-3.917,2.646-6.457,2.646h-23.077c-2.54,0-4.657-0.847-6.245-2.646c-1.693-1.799-2.435-3.916-2.435-6.457v-62.771
				c0-2.541-0.424-5.399-1.271-8.786c-0.847-3.282-2.012-6.034-3.388-8.151c-5.61-9.95-11.433-19.688-17.36-29.321
				s-11.961-19.266-18.207-29.005c-6.457-9.95-12.597-19.688-18.63-29.321c-6.034-9.633-11.856-19.372-17.466-29.322
				c-1.377-2.117-1.588-3.917-0.741-5.398c0.847-1.482,2.54-2.223,5.081-2.223h29.745c2.54,0,5.081,0.74,7.728,2.223
				c2.646,1.481,4.552,3.281,5.716,5.398c3.705,6.245,7.41,12.491,11.114,18.631c3.705,6.245,7.517,12.597,11.433,18.948
				c3.705,6.457,7.41,12.702,11.115,18.947c3.705,6.246,7.409,12.491,11.114,18.631c1.165,2.117,2.646,3.176,4.552,3.176
				c1.8,0,3.493-1.059,4.764-3.176c1.376-2.329,2.753-4.657,4.234-6.986c1.482-2.329,2.964-4.764,4.552-7.304l13.973-23.606
				c2.329-3.916,4.658-7.727,6.881-11.644s4.552-7.728,6.881-11.645c1.588-2.328,2.964-4.657,4.34-6.986
				c1.376-2.328,2.752-4.657,4.128-6.986c1.165-2.117,3.07-3.917,5.717-5.398c2.646-1.482,5.187-2.223,7.728-2.223h29.745
				c2.54,0,4.234,0.74,4.975,2.223C1199.339,446.266,1199.127,448.064,1197.962,450.288z"/>
			<path fill="#FFFFFF" d="M1403.109,611.082c-1.905,2.752-3.917,5.398-6.033,8.045c-2.012,2.646-4.234,5.081-6.563,7.409
				c-6.457,6.775-13.973,12.703-22.759,17.784c-4.128,2.54-8.362,4.764-12.809,6.669c-4.445,1.905-9.104,3.599-13.973,4.975
				c-9.95,2.753-19.795,4.129-29.745,4.129c-15.138,0-29.428-2.964-42.871-8.786s-25.194-13.761-35.355-23.923
				c-9.951-9.951-17.784-21.595-23.606-35.038c-5.821-13.444-8.786-27.734-8.786-42.872c0-15.137,2.965-29.428,8.786-42.871
				c5.822-13.231,13.762-24.981,23.606-35.355c10.268-9.95,22.123-17.783,35.355-23.605c13.443-5.822,27.733-8.786,42.871-8.786
				c9.95,0,19.795,1.376,29.745,4.128c9.738,2.753,18.631,6.563,26.888,11.433c4.233,2.541,8.362,5.293,12.067,8.362
				c3.811,3.07,7.304,6.14,10.691,9.527c4.869,5.081,8.997,10.162,12.597,15.455c1.376,2.117,1.693,4.234,0.847,6.245
				c-0.741,2.012-2.329,3.6-4.657,4.552l-21.595,8.786c-2.117,0.953-4.552,1.164-7.198,0.424c-2.646-0.636-4.764-2.012-6.246-3.917
				c-0.952-0.953-1.905-2.012-2.964-3.07c-0.952-1.059-1.905-2.116-2.964-3.069c-2.117-2.117-4.34-4.129-6.563-5.822
				c-2.224-1.8-4.658-3.387-7.198-4.975c-2.541-1.588-5.188-2.965-7.834-4.129c-2.752-1.164-5.398-2.223-8.15-3.176
				c-5.61-1.799-11.433-2.646-17.466-2.646c-9.527,0-18.631,1.906-27.417,5.822c-8.574,4.129-15.878,9.421-21.912,16.09
				c-6.245,6.775-11.22,14.502-14.925,23.077c-3.705,8.785-5.505,17.995-5.505,27.733c0,9.95,1.8,19.16,5.505,27.734
				s8.68,16.195,14.925,23.076c6.034,6.774,13.338,12.067,21.912,15.772c8.362,4.128,17.466,6.14,27.417,6.14
				c6.033,0,11.855-0.847,17.466-2.646c2.752-0.952,5.398-2.011,8.15-3.176c2.753-1.164,5.399-2.54,7.834-4.128
				c2.54-1.588,4.869-3.281,7.198-5.081c2.223-1.8,4.445-3.811,6.563-6.034c0.953-0.952,1.905-2.011,2.964-3.069
				c0.953-1.059,1.905-2.117,2.964-3.07c1.588-1.905,3.6-3.281,6.246-4.128c2.646-0.741,4.975-0.635,7.198,0.317l21.595,8.786
				c2.328,0.952,3.916,2.54,4.657,4.657C1404.697,606.741,1404.485,608.858,1403.109,611.082z"/>
			<path fill="#FFFFFF" d="M1539.027,660.093c-15.138,0-29.428-2.964-42.871-8.786s-25.193-13.761-35.144-23.817
				c-10.057-10.057-17.996-21.7-23.818-35.144c-5.821-13.444-8.785-27.84-8.785-43.189c0-15.137,2.964-29.533,8.785-43.083
				c5.822-13.549,13.762-25.299,23.818-35.355c10.056-10.056,21.7-17.995,35.144-23.817s27.733-8.786,42.871-8.786
				c15.349,0,29.745,2.964,43.188,8.786c13.444,5.822,25.088,13.762,35.145,23.817c10.057,10.057,17.995,21.807,23.817,35.355
				c5.821,13.55,8.786,27.84,8.786,43.083c0,15.35-2.965,29.745-8.786,43.189c-5.822,13.443-13.761,25.193-23.817,35.144
				c-10.057,10.057-21.7,17.995-35.145,23.817C1568.772,657.129,1554.482,660.093,1539.027,660.093z M1539.239,476.54
				c-9.738,0-18.736,2.011-27.205,6.033s-15.772,9.315-22.123,15.879c-6.352,6.563-11.327,14.396-15.032,23.182
				c-3.704,8.893-5.504,17.996-5.504,27.522c0,9.739,1.8,18.948,5.504,27.734c3.705,8.786,8.681,16.514,15.032,23.182
				c6.351,6.669,13.654,12.068,22.123,16.091s17.572,6.033,27.205,6.033c9.738,0,18.736-2.011,27.205-6.033
				c8.468-4.022,15.771-9.315,22.123-16.091c6.352-6.668,11.326-14.396,15.031-23.182s5.505-17.995,5.505-27.734
				c0-9.526-1.8-18.736-5.505-27.522c-3.705-8.892-8.68-16.619-15.031-23.182c-6.352-6.563-13.655-11.962-22.123-15.879
				C1557.976,478.551,1548.872,476.54,1539.239,476.54z"/>
			<path fill="#FFFFFF" d="M1727.026,538.042V646.86c0,2.541-0.848,4.658-2.646,6.458c-1.8,1.799-3.917,2.646-6.457,2.646h-23.076
				c-2.329,0-4.341-0.847-6.141-2.646c-1.799-1.8-2.646-3.917-2.646-6.458V447.324c0-2.541,1.165-4.022,3.6-4.552
				s4.552,0,6.246,1.588l128.084,121.098c1.905,1.8,3.6,2.329,4.764,1.8c1.27-0.635,1.905-2.117,1.905-4.658V451.664
				c0-2.541,0.847-4.658,2.646-6.457c1.8-1.8,3.917-2.646,6.457-2.646h22.759c2.541,0,4.658,0.847,6.457,2.646
				c1.8,1.799,2.646,3.916,2.646,6.457v199.325c0,2.54-1.27,4.022-3.6,4.552c-2.434,0.529-4.657,0-6.563-1.588l-127.768-119.087
				c-1.904-1.588-3.599-2.012-4.763-1.482C1727.556,534.02,1727.026,535.607,1727.026,538.042z"/>
		</g>
		<path fill="#FFFFFF" d="M636.295,487.443h-23.923c-4.658,0-8.469-3.812-8.469-8.469v-27.84c0-4.658,3.811-8.469,8.469-8.469
			h23.923c4.657,0,8.469,3.811,8.469,8.469v27.84C644.764,483.632,640.952,487.443,636.295,487.443z"/>
		<path fill="#FFFFFF" d="M778.67,487.443h-23.923c-4.658,0-8.469-3.812-8.469-8.469v-27.84c0-4.658,3.811-8.469,8.469-8.469h23.923
			c4.658,0,8.469,3.811,8.469,8.469v27.84C787.139,483.632,783.328,487.443,778.67,487.443z"/>
	</g>
</g>
</svg>
