<?xml version="1.0" encoding="utf-8"?>
<!-- Generator: Adobe Illustrator 19.2.1, SVG Export Plug-In . SVG Version: 6.00 Build 0)  -->
<svg version="1.1" id="Layer_1" xmlns="http://www.w3.org/2000/svg" xmlns:xlink="http://www.w3.org/1999/xlink" x="0px" y="0px"
	 viewBox="0 0 1239.8 1239.8" style="enable-background:new 0 0 1239.8 1239.8;" xml:space="preserve">
<style type="text/css">
	.st0{fill:#282828;}
</style>
<path class="st0" d="M1108.1,369.8L687.5,37.6c-4.9-3.8-11.3-4.5-16.8-1.9c-5.5,2.8-9,8.3-9,14.3v67.8L560.4,37.4
	c-5.8-4.7-13.9-4.7-19.8,0l-421.3,333c-0.2,0.2-0.2,0.2-0.4,0.4c-0.2,0.2-0.4,0.4-0.6,0.4c-0.4,0.4-0.6,0.6-1.1,1.1
	c-0.2,0.2-0.2,0.2-0.4,0.4c-0.4,0.4-0.9,1.1-1.3,1.7v0.2c-0.2,0.4-0.6,1.1-0.9,1.7c0,0.2-0.2,0.4-0.2,0.6c-0.2,0.4-0.4,0.9-0.4,1.3
	c0,0.2-0.2,0.4-0.2,0.6c-0.2,0.4-0.2,0.9-0.2,1.3c0,0.2,0,0.4-0.2,0.6c0,0.6,0,1.3,0,1.9l0,0v480.4c0,4.9,2.1,9.6,6,12.6
	l421.1,332.2c2.8,2.3,6.4,3.4,9.8,3.4c2.3,0,4.3-0.4,6.6-1.7c5.5-2.8,8.5-8.3,8.5-14.3v-67.8l102.1,80.4c3,2.3,6.6,3.4,10.2,3.4
	s7-1.1,10-3.4l421.1-332.8c0.2-0.2,0.4-0.2,0.4-0.4c0.2-0.2,0.4-0.4,0.6-0.4c0.4-0.4,0.6-0.6,1.1-1.1c0.2-0.2,0.2-0.2,0.4-0.4
	c0.4-0.4,0.9-1.1,1.3-1.7c0,0,0,0,0-0.2c0.4-0.4,0.6-1.1,0.9-1.7c0-0.2,0.2-0.4,0.2-0.6c0.2-0.4,0.4-0.9,0.4-1.3
	c0-0.2,0.2-0.4,0.2-0.6c0.2-0.4,0.2-0.9,0.2-1.3c0-0.2,0-0.4,0.2-0.6c0-0.6-0.6-1.3-0.6-1.9h-0.6V382.4
	C1113.4,377.5,1111.9,372.8,1108.1,369.8z M693.4,83.3l388,307v439.4L755.9,572.6L981,395.4c3.8-3,6.2-7.7,6.2-12.6
	c0-4.9-2.3-9.6-6.2-12.6L693.4,143.2V83.3z M533.5,722.4v339.2L282.1,862.5l214.7-169.3L533.5,722.4z M550.4,694.5l-27.1-21.3
	l154.6-121.7l24.5,19.2l2.6,2.1L550.4,694.5z M693.4,523.3V183.9l252,199.1L730.3,552.3L693.4,523.3z M550.1,70.5l111.3,88.1v364.6
	L497.3,652.5L259.3,465.1l-104.5-82.3L550.1,70.5z M533.5,1162.7l-388-307V416.1l90.2,71.2l235.8,185.9L246.8,850.4
	c-3.8,3-6.2,7.7-6.2,12.6c0,4.9,1.7,9.6,5.5,12.6l287.4,227.1V1162.7z M677.4,1175.3l-111.9-88.1V722.7l164.8-129.4l342.4,269.7
	L677.4,1175.3z"/>
</svg>
