<?xml version="1.0" encoding="utf-8"?>
<!-- Generator: Adobe Illustrator 16.0.0, SVG Export Plug-In . SVG Version: 6.00 Build 0)  -->
<!DOCTYPE svg PUBLIC "-//W3C//DTD SVG 1.1//EN" "http://www.w3.org/Graphics/SVG/1.1/DTD/svg11.dtd">
<svg version="1.1" id="Layer_1" xmlns="http://www.w3.org/2000/svg" xmlns:xlink="http://www.w3.org/1999/xlink" x="0px" y="0px"
	 width="1709.101px" height="293.813px" viewBox="0 0 1709.101 293.813" enable-background="new 0 0 1709.101 293.813"
	 xml:space="preserve">
<g>
	<path fill="#383838" d="M248.015,83.791L143.294,0.862c-1.157-0.964-2.893-1.157-4.243-0.386c-1.35,0.579-2.314,2.122-2.314,3.665
		v16.971L111.473,1.055c-1.543-1.157-3.472-1.157-4.822,0L1.544,84.176l0,0c-0.193,0.193-0.386,0.387-0.579,0.579l0,0
		c-0.193,0.192-0.193,0.387-0.386,0.578c0,0,0,0,0,0.193c-0.193,0.191-0.193,0.386-0.193,0.771l-0.193,0.192
		C0.193,86.682,0,87.068,0,87.26v119.766c0,1.157,0.771,2.313,1.736,3.085l105.107,82.931c0.771,0.579,1.543,0.771,2.507,0.771
		c0.579,0,1.35-0.192,1.929-0.387c1.35-0.577,2.507-2.12,2.507-3.663v-16.972l25.265,20.059c0.771,0.577,1.542,0.771,2.314,0.771
		c0.964,0,1.736-0.193,2.507-0.771l105.107-83.122l0,0c0.193-0.192,0.386-0.387,0.579-0.578l0,0
		c0.193-0.193,0.193-0.387,0.386-0.579c0,0,0,0,0-0.192c0.193-0.191,0.193-0.386,0.193-0.771l-0.771-0.192
		c0-0.193-0.771-0.579-0.771-0.771V86.684C248.786,85.719,248.979,84.562,248.015,83.791z M146.572,12.241l96.429,76.564v109.735
		l-81.771-64.222l55.929-44.164c0.964-0.771,1.35-1.929,1.35-3.086c0-1.156,0-2.313-0.964-3.085l-70.972-56.7L146.572,12.241
		L146.572,12.241z M106.072,171.927v84.664l-63.257-49.757l53.807-42.234L106.072,171.927z M109.351,164.791l-6.75-5.398
		l38.571-30.473l6.75,5.399L109.351,164.791z M146.572,122.17V37.506l62.293,49.758l-53.229,42.234L146.572,122.17z M109.351,9.155
		l27.579,21.986v91.027l-40.886,32.399L43.78,113.297L10.609,87.261L109.351,9.155z M106.072,281.663L7.715,205.098V95.362
		l19.093,14.851l62.872,49.371l-56.122,44.164c-0.964,0.771-1.543,1.929-1.543,3.086s0.964,2.314,1.929,3.086l72.128,56.894V281.663
		z M141.365,284.941l-27.579-22.179v-91.028l40.886-32.4l85.436,67.309L141.365,284.941z"/>
	<g>
		<g>
			<path fill="#383838" d="M496.608,221.684v16.971c0,2.314-0.771,4.436-2.508,5.979c-1.734,1.736-3.664,2.509-5.979,2.509H361.028
				c-2.313,0-4.436-0.771-5.979-2.509c-1.736-1.734-2.507-3.664-2.507-5.979V55.441c0-2.314,0.771-4.437,2.507-5.979
				c1.735-1.735,3.664-2.508,5.979-2.508h21.407c2.314,0,4.437,0.771,5.979,2.508c1.734,1.735,2.507,3.664,2.507,5.979v149.271
				c0,2.314,0.771,4.437,2.507,5.979c1.736,1.734,3.665,2.507,5.979,2.507h88.907c2.313,0,4.437,0.771,5.979,2.507
				C495.836,217.248,496.608,219.37,496.608,221.684z"/>
			<path fill="#383838" d="M571.243,244.634c-10.992-4.241-20.058-9.836-27-16.971c-7.715-7.329-13.5-16.2-17.551-26.614
				c-4.05-10.222-5.979-21.793-5.979-34.715v-46.285c0-2.313,0.771-4.437,2.507-5.979c1.736-1.735,3.472-2.507,5.786-2.507h21.6
				c2.314,0,4.438,0.771,5.979,2.507c1.736,1.736,2.508,3.665,2.508,5.979v46.093c0,10.027,1.735,18.32,5.015,24.878
				c3.277,6.363,7.328,11.57,11.957,15.622c5.015,4.05,10.222,6.75,15.621,7.906c2.894,0.771,5.594,1.351,8.101,1.735
				c2.508,0.386,4.82,0.578,6.942,0.578c4.051,0,8.871-0.771,14.851-2.121c5.593-1.35,10.8-3.857,15.62-7.907
				c5.016-3.856,9.064-9.063,12.345-15.621c3.278-6.558,5.014-14.851,5.014-24.879v-46.092c0-2.314,0.771-4.436,2.508-5.979
				c1.735-1.735,3.664-2.508,5.979-2.508h21.406c2.313,0,4.437,0.771,5.979,2.508c1.736,1.734,2.508,3.663,2.508,5.979v46.286
				c0,6.364-0.578,12.535-1.543,18.128c-0.965,5.786-2.507,11.186-4.436,16.586c-4.051,10.222-9.836,19.093-17.164,26.614
				c-7.329,7.136-16.395,12.729-27,16.972c-10.415,4.05-22.18,5.979-35.486,5.979C593.229,250.612,581.465,248.684,571.243,244.634z
				"/>
			<path fill="#383838" d="M880.394,115.612c-1.736,4.822-4.051,8.872-6.559,12.536c-2.699,3.856-6.17,6.941-10.414,9.643
				c-1.734,1.352-3.855,2.314-6.363,3.278c-1.734,0.579-2.699,0.965-2.508,1.157c0.193,0.192,1.352,0.771,3.279,1.156
				c2.508,0.966,5.014,1.736,7.135,2.7c4.822,2.314,9.064,5.786,12.922,10.028c4.051,4.243,7.137,9.063,9.645,14.465
				c2.313,5.207,3.471,10.993,3.471,17.164c0,10.993-1.736,20.25-5.014,27.965c-3.473,7.906-7.908,13.885-13.309,18.321
				c-5.398,4.821-11.957,8.1-19.672,9.835c-3.855,0.965-7.713,1.736-11.764,2.122c-4.051,0.578-8.293,0.771-12.535,0.771h-83.895
				c-2.313,0-4.436-0.771-5.978-2.508c-1.736-1.734-2.508-3.664-2.508-5.979V55.055c0-2.314,0.771-4.437,2.508-5.979
				c1.736-1.736,3.664-2.507,5.978-2.507h79.65c4.242,0,8.1,0.191,11.764,0.578c3.664,0.386,7.328,0.964,10.992,1.734
				c7.521,1.736,13.693,4.822,18.516,8.68c5.4,4.05,9.643,9.644,12.535,16.972c3.088,6.75,4.629,16.007,4.629,27.578
				C882.902,106.548,881.937,110.984,880.394,115.612z M783.001,128.341h38.57c3.855,0,7.137-0.771,10.027-2.121
				c2.508-1.35,5.016-3.277,7.137-5.784c1.734-2.122,3.277-5.016,4.436-8.293c0.965-2.509,1.352-5.594,1.352-9.064
				c0-2.893-0.578-5.786-1.736-8.486c-1.35-3.085-2.699-5.398-4.436-7.136c-1.734-1.734-3.664-3.471-6.363-5.014
				c-2.314-1.352-5.016-1.929-7.908-1.929h-41.078c-2.314,0-4.436,0.771-5.979,2.507c-1.736,1.735-2.508,3.665-2.508,5.979v30.665
				c0,2.313,0.771,4.437,2.508,5.979C778.566,127.569,780.687,128.341,783.001,128.341z M837.964,210.691
				c2.701-1.352,5.207-3.278,7.715-6.364c2.314-2.7,4.051-5.593,5.207-8.679c1.352-2.7,1.93-5.979,1.93-9.644
				c0-6.558-2.508-12.149-7.328-16.972c-4.822-4.629-11.766-6.75-20.83-6.75h-41.656c-2.314,0-4.436,0.771-5.979,2.507
				c-1.736,1.736-2.508,3.664-2.508,5.979v33.942c0,2.314,0.771,4.437,2.508,5.979c1.734,1.734,3.664,2.507,5.979,2.507h45.707
				C832.179,213.198,835.265,212.427,837.964,210.691z"/>
			<path fill="#383838" d="M1077.494,54.284c-1.93,3.278-4.051,6.75-6.365,10.222c-2.121,3.472-4.627,7.328-7.135,11.378
				c-3.279,5.207-6.559,10.607-10.029,16.2c-3.471,5.4-6.75,10.993-10.221,16.778c-3.664,5.593-7.137,11.186-10.607,16.779
				c-3.471,5.593-6.75,10.991-10.029,16.198c-2.506,4.052-5.014,7.907-7.326,11.572c-2.314,3.664-4.438,7.136-6.365,10.606
				c-1.35,1.929-2.314,4.629-3.086,7.715c-0.771,3.085-1.156,5.785-1.156,8.293v58.821c0,2.313-0.771,4.436-2.508,5.979
				c-1.736,1.735-3.664,2.507-5.979,2.507h-21.6c-2.314,0-4.244-0.771-5.787-2.507s-2.313-3.664-2.313-5.979v-58.821
				c0-2.314-0.387-5.015-1.158-8.293c-0.771-3.086-1.928-5.593-3.086-7.715c-5.207-9.258-10.799-18.515-16.199-27.578
				c-5.594-9.064-11.186-18.129-17.164-27.193c-5.979-9.257-11.764-18.514-17.551-27.578c-5.592-9.063-11.186-18.129-16.393-27.579
				c-1.35-1.928-1.543-3.664-0.771-5.014c0.771-1.351,2.508-2.122,4.822-2.122h28.156c2.314,0,4.82,0.771,7.328,2.122
				c2.508,1.35,4.242,3.086,5.4,5.014c3.471,5.786,6.941,11.766,10.414,17.552c3.471,5.784,6.941,11.764,10.605,17.741
				c3.473,5.979,6.943,11.957,10.414,17.743c3.473,5.786,6.943,11.766,10.414,17.551c1.158,1.929,2.508,3.086,4.244,3.086
				c1.734,0,3.277-0.965,4.436-3.086c1.352-2.121,2.508-4.437,4.051-6.558c1.35-2.122,2.699-4.436,4.242-6.75l13.113-22.179
				c2.121-3.664,4.244-7.329,6.365-10.993s4.242-7.328,6.363-10.992c1.543-2.122,2.893-4.437,4.051-6.558
				c1.35-2.121,2.506-4.437,3.857-6.559c1.156-1.928,2.893-3.664,5.398-5.014c2.508-1.351,4.822-2.121,7.328-2.121h27.965
				c2.314,0,3.857,0.771,4.629,2.121C1078.843,50.62,1078.652,52.163,1077.494,54.284z"/>
			<path fill="#383838" d="M1269.773,204.905c-1.736,2.508-3.666,5.015-5.594,7.521c-1.928,2.508-4.051,4.821-6.172,6.943
				c-5.979,6.364-13.113,11.957-21.406,16.778c-3.857,2.313-7.906,4.436-11.957,6.363c-4.244,1.735-8.486,3.473-13.113,4.63
				c-9.258,2.507-18.516,3.855-27.965,3.855c-14.271,0-27.578-2.7-40.115-8.293c-12.535-5.593-23.527-12.921-33.17-22.371
				c-9.258-9.257-16.779-20.25-22.18-32.786c-5.4-12.534-8.293-26.034-8.293-40.112c0-14.271,2.699-27.579,8.293-40.115
				c5.4-12.343,12.922-23.335,22.18-33.171c9.643-9.257,20.635-16.778,33.17-22.179c12.537-5.4,26.037-8.293,40.115-8.293
				c9.258,0,18.514,1.351,27.965,3.856c9.063,2.507,17.549,6.171,25.07,10.607c4.051,2.313,7.715,5.014,11.379,7.714
				c3.471,2.893,6.941,5.786,10.027,8.871c4.629,4.821,8.486,9.644,11.766,14.465c1.35,1.929,1.543,4.05,0.771,5.785
				c-0.771,1.929-2.123,3.278-4.438,4.243l-20.25,8.293c-1.93,0.964-4.242,0.964-6.75,0.386s-4.436-1.929-5.785-3.664
				c-0.965-0.965-1.734-1.929-2.699-2.895c-0.965-0.964-1.736-1.928-2.701-2.893c-1.928-1.929-4.049-3.857-6.17-5.399
				c-2.123-1.735-4.244-3.278-6.75-4.629c-2.314-1.543-4.822-2.699-7.33-3.856c-2.506-1.157-5.014-2.121-7.713-3.086
				c-5.207-1.735-10.801-2.507-16.393-2.507c-8.873,0-17.553,1.735-25.65,5.399c-8.1,3.856-14.85,8.871-20.443,15.043
				c-5.785,6.364-10.414,13.5-13.885,21.601c-3.473,8.293-5.209,16.777-5.209,26.035s1.736,17.937,5.209,26.035
				c3.471,8.102,8.1,15.236,13.885,21.602c5.594,6.363,12.535,11.378,20.443,14.85c7.906,3.857,16.393,5.786,25.65,5.786
				c5.592,0,11.186-0.771,16.393-2.508c2.506-0.964,5.014-1.93,7.713-3.085c2.508-1.157,5.016-2.314,7.33-3.857
				c2.313-1.543,4.627-3.086,6.75-4.821c2.121-1.735,4.049-3.665,6.17-5.593c0.965-0.965,1.736-1.929,2.701-2.894
				c0.965-0.964,1.734-1.93,2.699-2.894c1.543-1.734,3.473-3.086,5.785-3.856c2.508-0.771,4.629-0.578,6.75,0.192l20.25,8.293
				c2.121,0.965,3.664,2.314,4.438,4.437C1271.507,200.855,1271.123,202.976,1269.773,204.905z"/>
			<path fill="#383838" d="M1397.251,250.998c-14.271,0-27.58-2.7-40.115-8.293c-12.535-5.398-23.527-12.921-32.979-22.371
				c-9.449-9.45-16.779-20.441-22.371-32.979c-5.4-12.536-8.293-26.036-8.293-40.5c0-14.271,2.699-27.578,8.293-40.309
				c5.398-12.729,12.922-23.721,22.371-33.171c9.451-9.45,20.441-16.777,32.979-22.371c12.535-5.399,26.035-8.293,40.115-8.293
				c14.463,0,27.963,2.7,40.5,8.293c12.535,5.399,23.527,12.921,32.979,22.371c9.449,9.45,16.777,20.442,22.371,33.171
				c5.4,12.729,8.293,26.036,8.293,40.309c0,14.464-2.699,27.964-8.293,40.5c-5.4,12.536-12.922,23.527-22.371,32.979
				c-9.449,9.45-20.443,16.778-32.979,22.371C1425.214,248.298,1411.714,250.998,1397.251,250.998z M1397.445,78.777
				c-9.064,0-17.551,1.928-25.457,5.593c-7.908,3.664-14.852,8.678-20.83,14.85c-5.979,6.173-10.605,13.5-14.078,21.793
				s-5.207,16.973-5.207,25.844c0,9.063,1.734,17.743,5.207,26.036c3.473,8.292,8.1,15.428,14.078,21.792
				c5.979,6.363,12.922,11.379,20.83,15.043c7.906,3.665,16.393,5.593,25.457,5.593c9.063,0,17.549-1.928,25.457-5.593
				c7.906-3.664,14.85-8.68,20.828-15.043c5.979-6.364,10.605-13.5,14.078-21.792c3.473-8.293,5.207-16.779,5.207-26.036
				c0-8.871-1.734-17.55-5.207-25.844c-3.473-8.293-8.1-15.62-14.078-21.793c-5.979-6.172-12.922-11.186-20.828-14.85
				C1414.994,80.705,1406.507,78.777,1397.445,78.777z"/>
			<path fill="#383838" d="M1573.523,136.634v102.021c0,2.314-0.771,4.436-2.508,5.979c-1.734,1.736-3.664,2.509-5.979,2.509
				h-21.602c-2.119,0-4.049-0.771-5.785-2.509c-1.734-1.734-2.508-3.664-2.508-5.979V51.584c0-2.313,1.158-3.856,3.473-4.243
				c2.313-0.386,4.244,0,5.785,1.543l120.15,113.594c1.734,1.735,3.277,2.122,4.436,1.735c1.158-0.579,1.734-1.929,1.734-4.436
				V55.827c0-2.313,0.771-4.436,2.51-5.979c1.734-1.736,3.664-2.509,5.979-2.509h21.406c2.313,0,4.436,0.771,5.979,2.509
				c1.736,1.734,2.508,3.664,2.508,5.979v186.878c0,2.314-1.156,3.857-3.473,4.243c-2.314,0.386-4.242,0-6.17-1.543
				l-119.764-111.664c-1.736-1.543-3.279-1.929-4.438-1.35C1574.101,132.777,1573.523,134.127,1573.523,136.634z"/>
		</g>
		<path fill="#383838" d="M543.665,89.191h-7.521c-8.485,0-15.429-6.943-15.429-15.429V62.576c0-8.486,6.942-15.429,15.429-15.429
			h7.521c8.484,0,15.429,6.941,15.429,15.429v11.187C559.094,82.248,552.151,89.191,543.665,89.191z"/>
		<path fill="#383838" d="M677.122,89.191h-7.521c-8.484,0-15.429-6.943-15.429-15.429V62.576c0-8.486,6.942-15.429,15.429-15.429
			h7.521c8.484,0,15.429,6.941,15.429,15.429v11.187C692.551,82.248,685.608,89.191,677.122,89.191z"/>
	</g>
</g>
</svg>
