<?xml version="1.0" encoding="utf-8"?>
<!-- Generator: Adobe Illustrator 16.0.0, SVG Export Plug-In . SVG Version: 6.00 Build 0)  -->
<!DOCTYPE svg PUBLIC "-//W3C//DTD SVG 1.1//EN" "http://www.w3.org/Graphics/SVG/1.1/DTD/svg11.dtd">
<svg version="1.1" id="Layer_1" xmlns="http://www.w3.org/2000/svg" xmlns:xlink="http://www.w3.org/1999/xlink" x="0px" y="0px"
	 width="719.496px" height="845.791px" viewBox="600.306 90.461 719.496 845.791"
	 enable-background="new 600.306 90.461 719.496 845.791" xml:space="preserve">
<path fill="#FFFFFF" d="M1315.374,331.614L1012.92,92.934c-3.456-2.754-8.153-3.24-12.149-1.296c-3.942,1.944-6.48,5.94-6.48,10.314
	v48.654l-72.954-57.672c-4.158-3.294-10.098-3.294-14.256,0L604.626,332.046c-0.108,0.108-0.216,0.216-0.324,0.271
	c-0.162,0.107-0.27,0.216-0.432,0.378c-0.271,0.216-0.486,0.485-0.702,0.702c-0.108,0.107-0.216,0.216-0.324,0.323
	c-0.323,0.378-0.594,0.756-0.864,1.188c0,0.054-0.054,0.107-0.054,0.107c-0.216,0.379-0.432,0.757-0.594,1.135
	c-0.054,0.162-0.108,0.27-0.162,0.432c-0.108,0.324-0.216,0.594-0.324,0.918c-0.054,0.162-0.107,0.324-0.162,0.486
	c-0.107,0.323-0.161,0.647-0.216,0.972c-0.054,0.162-0.054,0.324-0.054,0.486c-0.054,0.485-0.108,0.972-0.108,1.458c0,0,0,0,0,0.054
	v345.06c0,3.511,1.62,6.858,4.374,9.019l302.454,238.68c2.053,1.62,4.59,2.484,7.128,2.484c1.729,0,3.402-0.378,5.022-1.134
	c3.941-1.944,6.479-5.94,6.479-10.314v-48.654l72.954,57.672c2.106,1.675,4.59,2.484,7.128,2.484s5.022-0.81,7.128-2.484
	l302.454-239.111c0.108-0.108,0.216-0.216,0.324-0.271c0.162-0.107,0.271-0.216,0.432-0.378c0.271-0.216,0.486-0.485,0.702-0.702
	c0.108-0.107,0.217-0.216,0.324-0.323c0.324-0.378,0.594-0.756,0.864-1.188c0-0.054,0.054-0.054,0.054-0.107
	c0.216-0.378,0.432-0.757,0.648-1.188c0.054-0.162,0.107-0.27,0.162-0.432c0.107-0.324,0.27-0.648,0.323-0.918
	c0.054-0.162,0.108-0.324,0.162-0.486c0.108-0.324,0.162-0.647,0.216-0.972c0.055-0.162,0.055-0.324,0.055-0.486
	c0.054-0.486,0.107-0.972,0.107-1.458c0,0,0,0,0-0.054V340.632C1319.748,337.068,1318.128,333.774,1315.374,331.614z
	 M1017.294,125.658l279.504,220.536v315.792l-234.414-184.681l161.46-127.224c2.754-2.16,4.374-5.508,4.374-9.018
	c0-3.511-1.62-6.858-4.374-9.019L1017.24,168.75v-43.092H1017.294z M902.706,584.982v243.701l-180.9-142.991l154.387-121.608
	L902.706,584.982z M914.208,564.786l-19.439-15.336l111.023-87.48l17.55,13.824l1.891,1.512L914.208,564.786z M1017.294,441.774
	V198.072l180.9,142.992l-154.387,121.607L1017.294,441.774z M914.208,116.586l80.082,63.342v261.9l-118.098,92.988L705.228,400.14
	l-74.951-59.075L914.208,116.586z M902.706,901.098L623.202,680.563V364.77l64.908,51.139L857.616,549.45l-161.46,127.17
	c-2.754,2.16-4.374,5.508-4.374,9.018c0,3.511,1.62,6.858,4.374,9.019L902.76,857.952v43.146H902.706z M1005.792,910.17
	l-80.082-63.288V584.982l118.098-93.042l245.916,193.752L1005.792,910.17z"/>
</svg>
