<?xml version="1.0" encoding="utf-8"?>
<!-- Generator: Adobe Illustrator 16.0.0, SVG Export Plug-In . SVG Version: 6.00 Build 0)  -->
<!DOCTYPE svg PUBLIC "-//W3C//DTD SVG 1.1//EN" "http://www.w3.org/Graphics/SVG/1.1/DTD/svg11.dtd">
<svg version="1.1" id="Layer_1" xmlns="http://www.w3.org/2000/svg" xmlns:xlink="http://www.w3.org/1999/xlink" x="0px" y="0px"
	 width="872.24px" height="1025.577px" viewBox="518.784 29.509 872.24 1025.577"
	 enable-background="new 518.784 29.509 872.24 1025.577" xml:space="preserve">
<path fill="#282828" d="M1385.275,322.136L1018.887,32.754c-4.269-3.311-9.843-3.92-14.635-1.655
	c-4.791,2.439-7.84,7.23-7.84,12.457v59.061L908.169,32.58c-5.053-4.094-12.108-4.094-17.248,0L523.923,322.658
	c-0.174,0.175-0.174,0.175-0.348,0.349c-0.175,0.175-0.349,0.349-0.523,0.349c-0.348,0.349-0.522,0.522-0.958,0.958
	c-0.174,0.175-0.174,0.175-0.349,0.349c-0.348,0.349-0.783,0.958-1.132,1.48v0.175c-0.175,0.349-0.522,0.958-0.784,1.48
	c0,0.175-0.174,0.349-0.174,0.522c-0.175,0.349-0.349,0.784-0.349,1.133c0,0.174-0.175,0.349-0.175,0.522
	c-0.174,0.349-0.174,0.784-0.174,1.133c0,0.174,0,0.349-0.174,0.522c0,0.522,0,1.133,0,1.655l0,0v418.48
	c0,4.269,1.829,8.362,5.227,10.976l366.823,289.383c2.439,2.003,5.575,2.961,8.537,2.961c2.003,0,3.745-0.348,5.749-1.48
	c4.791-2.439,7.404-7.23,7.404-12.457v-59.061l88.94,70.037c2.613,2.003,5.749,2.961,8.886,2.961c3.136,0,6.098-0.958,8.711-2.961
	l366.823-289.905c0.175-0.174,0.349-0.174,0.349-0.349c0.174-0.174,0.349-0.349,0.522-0.349c0.349-0.348,0.522-0.522,0.958-0.958
	c0.175-0.174,0.175-0.174,0.349-0.349c0.349-0.349,0.784-0.958,1.133-1.48c0,0,0,0,0-0.175c0.349-0.348,0.522-0.958,0.784-1.48
	c0-0.174,0.174-0.349,0.174-0.522c0.174-0.349,0.349-0.784,0.349-1.133c0-0.174,0.174-0.349,0.174-0.522
	c0.175-0.349,0.175-0.784,0.175-1.133c0-0.174,0-0.348,0.174-0.522c0-0.522-0.522-1.132-0.522-1.655h-0.522v-418.48
	C1389.892,328.844,1388.585,324.749,1385.275,322.136z M1024.026,72.563l337.99,267.43v382.766l-283.546-223.962l196.087-154.36
	c3.31-2.613,5.4-6.708,5.4-10.977s-2.004-8.362-5.4-10.976l-250.531-197.742V72.563z M884.736,629.289v295.479L665.739,751.331
	l187.027-147.479L884.736,629.289z M899.458,604.984l-23.607-18.555l134.674-106.014l21.342,16.726l2.266,1.829L899.458,604.984z
	 M1024.026,455.851V160.197l219.52,173.438l-187.375,147.479L1024.026,455.851z M899.196,61.413l96.955,76.745v317.606
	L853.202,568.398L645.878,405.152l-91.03-71.692L899.196,61.413z M884.736,1012.838l-337.99-267.431V362.468l78.574,62.023
	L830.728,586.43L634.989,740.79c-3.31,2.614-5.4,6.708-5.4,10.977s1.48,8.362,4.791,10.976l250.356,197.829V1012.838z
	 M1010.089,1023.813l-97.478-76.744V629.55l143.56-112.722l298.267,234.938L1010.089,1023.813z"/>
</svg>
