<?xml version="1.0" encoding="utf-8"?>
<!-- Generator: Adobe Illustrator 16.0.0, SVG Export Plug-In . SVG Version: 6.00 Build 0)  -->
<!DOCTYPE svg PUBLIC "-//W3C//DTD SVG 1.1//EN" "http://www.w3.org/Graphics/SVG/1.1/DTD/svg11.dtd">
<svg version="1.1" id="Layer_1" xmlns="http://www.w3.org/2000/svg" xmlns:xlink="http://www.w3.org/1999/xlink" x="0px" y="0px"
	 width="1730.507px" height="264.986px" viewBox="97.543 407.507 1730.507 264.986"
	 enable-background="new 97.543 407.507 1730.507 264.986" xml:space="preserve">
<g>
	<g>
		<path fill="#383838" d="M281.336,635.271v21.6c0,3.086-0.964,5.593-3.086,7.715c-2.122,2.121-4.628,3.086-7.714,3.086H108.343
			c-3.085,0-5.593-0.965-7.714-3.086c-2.121-2.122-3.085-4.629-3.085-7.715V423.129c0-3.086,0.964-5.593,3.085-7.715
			c2.122-2.121,4.629-3.086,7.714-3.086h27.193c3.086,0,5.593,0.965,7.714,3.086c2.122,2.122,3.086,4.629,3.086,7.715v190.543
			c0,3.085,0.964,5.593,3.085,7.714s4.628,3.086,7.714,3.086h113.4c3.086,0,5.593,0.964,7.714,3.086
			C280.372,629.679,281.336,632.186,281.336,635.271z"/>
		<path fill="#383838" d="M376.607,664.586c-13.886-5.4-25.458-12.536-34.521-21.601c-9.836-9.257-17.165-20.636-22.372-33.75
			S312,581.464,312,564.879v-59.015c0-3.086,0.964-5.593,3.086-7.714c2.121-2.122,4.628-3.086,7.328-3.086h27.579
			c3.085,0,5.593,0.964,7.714,3.086c2.122,2.121,3.086,4.628,3.086,7.714v58.629c0,12.729,2.121,23.335,6.364,31.821
			c4.243,8.1,9.257,14.85,15.429,19.864c6.557,5.207,13.114,8.485,19.864,10.028c3.664,0.965,7.136,1.543,10.221,2.121
			c3.086,0.386,6.171,0.771,8.872,0.771c5.207,0,11.379-0.964,18.9-2.699c7.136-1.543,13.886-5.015,19.864-10.029
			c6.364-4.821,11.571-11.571,15.621-19.864c4.243-8.293,6.364-18.899,6.364-31.821v-58.629c0-3.085,0.964-5.593,3.086-7.714
			c2.121-2.121,4.628-3.086,7.714-3.086h27.193c3.085,0,5.593,0.965,7.714,3.086s3.086,4.629,3.086,7.714v59.015
			c0,8.101-0.579,15.814-1.929,23.143c-1.35,7.329-3.278,14.271-5.786,21.021c-5.207,13.114-12.535,24.301-21.985,33.75
			c-9.257,9.064-20.828,16.2-34.521,21.601c-13.307,5.207-28.35,7.714-45.321,7.714S389.528,669.6,376.607,664.586z"/>
		<path fill="#383838" d="M770.808,499.886c-2.314,5.979-5.208,11.379-8.293,16.007c-3.472,4.821-7.907,8.872-13.308,12.15
			c-2.314,1.543-5.015,3.086-8.1,4.243c-2.314,0.771-3.278,1.157-3.086,1.542c0.192,0.386,1.543,0.965,4.243,1.543
			c3.278,1.157,6.364,2.314,9.064,3.472c5.979,3.086,11.571,7.328,16.393,12.922c5.207,5.399,9.257,11.571,12.149,18.514
			c3.086,6.75,4.629,14.079,4.629,21.986c0,13.886-2.121,25.843-6.364,35.678c-4.436,10.029-10.028,17.743-17.164,23.336
			c-6.943,5.979-15.429,10.222-25.071,12.536c-4.821,1.157-9.836,2.121-15.043,2.7c-5.207,0.771-10.415,0.964-16.007,0.964H597.814
			c-3.086,0-5.593-0.964-7.714-3.086c-2.122-2.121-3.086-4.628-3.086-7.714v-233.55c0-3.086,0.964-5.593,3.086-7.715
			c2.121-2.121,4.628-3.086,7.714-3.086h101.442c5.4,0,10.415,0.193,15.043,0.771c4.629,0.386,9.258,1.157,13.886,2.122
			c9.45,2.314,17.357,5.979,23.722,11.186c6.943,5.207,12.343,12.343,16.007,21.6c3.857,8.679,5.979,20.443,5.979,35.293
			C773.893,488.507,772.929,494.1,770.808,499.886z M646.607,516.278h49.179c4.821,0,9.257-0.964,12.921-2.7
			c3.278-1.542,6.364-4.05,9.064-7.328c2.314-2.7,4.243-6.364,5.593-10.414c1.157-3.278,1.736-7.136,1.736-11.571
			c0-3.665-0.771-7.329-2.122-10.8c-1.543-3.857-3.472-6.943-5.593-9.064c-2.121-2.314-4.821-4.436-8.1-6.364
			c-3.086-1.543-6.365-2.508-10.029-2.508h-52.649c-3.086,0-5.593,0.965-7.715,3.086c-2.121,2.121-3.085,4.629-3.085,7.715v39.149
			c0,3.086,0.964,5.593,3.085,7.715C641.015,515.314,643.521,516.278,646.607,516.278z M716.614,621.193
			c3.472-1.543,6.75-4.243,9.836-8.101c3.086-3.472,5.207-7.136,6.557-11.186c1.543-3.472,2.508-7.521,2.508-12.15
			c0-8.292-3.086-15.621-9.45-21.6c-5.979-5.786-14.851-8.679-26.422-8.679h-53.035c-3.086,0-5.593,0.965-7.715,3.086
			c-2.121,2.121-3.085,4.629-3.085,7.714v43.2c0,3.086,0.964,5.593,3.085,7.715c2.122,2.121,4.629,3.085,7.715,3.085h58.242
			C709.286,624.472,713.143,623.314,716.614,621.193z"/>
		<path fill="#383838" d="M1022.293,421.778c-2.507,4.243-5.207,8.486-8.101,13.114c-2.699,4.629-5.785,9.45-9.064,14.465
			c-4.242,6.75-8.485,13.692-12.729,20.636c-4.242,6.942-8.678,14.078-13.113,21.214c-4.629,7.136-9.064,14.271-13.5,21.407
			c-4.243,7.136-8.486,14.078-12.729,20.828c-3.279,5.208-6.365,10.029-9.258,14.657c-2.893,4.629-5.593,9.258-8.293,13.693
			c-1.543,2.507-2.893,5.785-3.857,9.836c-0.964,4.05-1.35,7.521-1.35,10.414v75.021c0,3.086-0.964,5.593-3.086,7.714
			c-2.121,2.122-4.628,3.086-7.714,3.086h-27.579c-3.085,0-5.592-0.964-7.521-3.086c-1.928-2.121-2.893-4.628-2.893-7.714v-75.021
			c0-3.086-0.578-6.558-1.543-10.414c-0.964-3.857-2.314-7.136-4.05-9.836c-6.75-11.957-13.692-23.528-20.828-35.101
			c-7.136-11.571-14.271-23.143-21.793-34.714c-7.714-11.957-15.043-23.528-22.372-35.1c-7.135-11.572-14.271-23.144-21.021-35.101
			c-1.543-2.507-1.929-4.628-0.965-6.364c0.965-1.735,3.086-2.7,6.172-2.7h35.679c3.086,0,6.171,0.965,9.257,2.7
			c3.086,1.736,5.399,3.857,6.75,6.364c4.436,7.521,8.871,14.851,13.308,22.372c4.436,7.521,8.871,15.042,13.692,22.757
			c4.436,7.714,8.871,15.235,13.308,22.757c4.436,7.521,8.871,14.851,13.307,22.372c1.35,2.507,3.278,3.856,5.4,3.856
			c2.121,0,4.05-1.35,5.785-3.856c1.543-2.7,3.278-5.593,5.015-8.293c1.735-2.7,3.472-5.786,5.399-8.679l16.779-28.351
			c2.699-4.628,5.593-9.257,8.293-13.886c2.699-4.628,5.399-9.257,8.292-13.885c1.929-2.7,3.665-5.594,5.208-8.293
			c1.542-2.7,3.278-5.593,4.82-8.293c1.351-2.508,3.665-4.629,6.75-6.364c3.086-1.736,6.172-2.7,9.258-2.7h35.679
			c3.085,0,5.014,0.964,5.979,2.7C1024.028,416.957,1023.643,419.271,1022.293,421.778z"/>
		<path fill="#383838" d="M1267.607,613.864c-2.314,3.278-4.629,6.364-7.136,9.643c-2.508,3.086-5.015,6.172-7.907,8.872
			c-7.714,8.1-16.778,15.235-27.192,21.214c-4.822,3.086-10.029,5.786-15.43,8.101c-5.399,2.313-10.992,4.242-16.778,5.979
			c-11.957,3.278-23.722,4.821-35.679,4.821c-18.128,0-35.293-3.472-51.3-10.415c-16.007-6.942-30.085-16.585-42.235-28.542
			c-11.957-11.958-21.215-25.843-28.35-41.851c-6.943-16.007-10.415-33.171-10.415-51.3s3.472-35.293,10.415-51.3
			c6.942-15.814,16.393-29.893,28.35-42.236c12.343-11.957,26.422-21.214,42.235-28.35c16.007-6.942,33.172-10.414,51.3-10.414
			c11.957,0,23.722,1.543,35.679,4.821c11.571,3.278,22.372,7.714,32.015,13.692c5.207,3.086,10.028,6.365,14.464,10.029
			c4.629,3.664,8.872,7.328,12.729,11.378c5.786,5.979,10.8,12.15,15.043,18.515c1.543,2.507,1.929,5.015,0.964,7.521
			c-0.964,2.507-2.699,4.243-5.592,5.4l-25.844,10.414c-2.507,1.157-5.399,1.35-8.485,0.578s-5.593-2.314-7.521-4.628
			c-1.157-1.157-2.314-2.314-3.472-3.665c-1.157-1.35-2.314-2.507-3.471-3.664c-2.508-2.507-5.208-4.821-7.908-6.942
			c-2.699-2.122-5.592-4.051-8.485-5.979c-3.085-1.929-6.171-3.472-9.45-4.822c-3.278-1.35-6.557-2.699-9.836-3.856
			c-6.75-2.122-13.692-3.086-21.021-3.086c-11.379,0-22.372,2.314-32.786,6.942c-10.222,4.822-18.9,11.379-26.229,19.093
			c-7.521,8.101-13.307,17.357-17.743,27.579c-4.436,10.414-6.557,21.6-6.557,33.171c0,11.958,2.121,22.95,6.557,33.172
			c4.437,10.222,10.415,19.479,17.743,27.578c7.136,8.101,16.007,14.465,26.229,18.9c10.028,4.821,21.021,7.328,32.786,7.328
			c7.136,0,14.271-0.964,21.021-3.085c3.279-1.157,6.558-2.508,9.836-3.857c3.279-1.35,6.364-3.086,9.45-4.821
			c3.086-1.929,5.786-3.857,8.485-6.172c2.701-2.121,5.208-4.628,7.908-7.136c1.156-1.157,2.313-2.314,3.471-3.664
			s2.314-2.507,3.472-3.664c1.929-2.314,4.436-3.857,7.521-4.821c3.086-0.965,5.979-0.771,8.485,0.386l25.844,10.414
			c2.699,1.157,4.628,3.086,5.592,5.593C1269.536,608.85,1269.149,611.357,1267.607,613.864z"/>
		<path fill="#383838" d="M1430.186,672.493c-18.128,0-35.293-3.472-51.3-10.415c-16.007-6.942-30.086-16.393-42.043-28.35
			s-21.407-26.035-28.35-42.043c-6.943-16.007-10.414-33.171-10.414-51.686c0-18.129,3.471-35.293,10.414-51.493
			c6.942-16.199,16.393-30.278,28.35-42.235s26.036-21.407,42.043-28.35c16.007-6.943,33.172-10.415,51.3-10.415
			c18.321,0,35.679,3.472,51.686,10.415c16.007,6.942,30.086,16.393,42.043,28.35s21.407,26.036,28.351,42.235
			c6.942,16.2,10.414,33.364,10.414,51.493c0,18.321-3.472,35.679-10.414,51.686c-6.943,16.008-16.394,30.086-28.351,42.043
			s-26.036,21.407-42.043,28.35C1465.671,669.021,1448.507,672.493,1430.186,672.493z M1430.379,453.214
			c-11.571,0-22.372,2.314-32.593,7.136c-10.029,4.822-18.9,11.187-26.422,19.093c-7.521,7.907-13.5,17.165-17.936,27.771
			c-4.436,10.607-6.558,21.601-6.558,32.979c0,11.571,2.122,22.757,6.558,33.171s10.414,19.672,17.936,27.771
			s16.393,14.464,26.422,19.093c10.028,4.821,21.021,7.136,32.593,7.136s22.371-2.314,32.593-7.136
			c10.028-4.821,18.9-11.186,26.422-19.093c7.521-8.1,13.5-17.357,17.936-27.771s6.557-21.6,6.557-33.171
			c0-11.379-2.121-22.372-6.557-32.979c-4.436-10.606-10.415-19.864-17.936-27.771c-7.521-7.907-16.394-14.271-26.422-19.094
			C1452.75,455.528,1441.95,453.214,1430.379,453.214z"/>
		<path fill="#383838" d="M1654.864,526.693v130.178c0,3.086-0.965,5.593-3.086,7.715c-2.121,2.121-4.629,3.086-7.714,3.086h-27.579
			c-2.699,0-5.207-0.965-7.328-3.086c-2.121-2.122-3.086-4.629-3.086-7.715V418.307c0-3.085,1.543-4.821,4.436-5.399
			c2.894-0.579,5.4,0,7.521,1.929l153.129,144.836c2.314,2.121,4.243,2.699,5.786,2.121c1.542-0.771,2.313-2.507,2.313-5.593
			V423.707c0-3.086,0.965-5.593,3.086-7.714c2.121-2.122,4.629-3.086,7.715-3.086h27.192c3.086,0,5.593,0.964,7.714,3.086
			c2.122,2.121,3.086,4.628,3.086,7.714v238.371c0,3.086-1.543,4.822-4.436,5.4s-5.593,0-7.907-1.929l-152.743-142.328
			c-2.313-1.929-4.242-2.508-5.785-1.736C1655.636,521.871,1654.864,523.8,1654.864,526.693z"/>
	</g>
	<path fill="#383838" d="M345.75,466.136h-18.707c-8.293,0-15.043-6.75-15.043-15.043v-23.336c0-8.293,6.75-15.043,15.043-15.043
		h18.707c8.293,0,15.043,6.75,15.043,15.043v23.336C360.793,459.386,354.043,466.136,345.75,466.136z"/>
	<path fill="#383838" d="M516.043,466.136h-18.707c-8.293,0-15.043-6.75-15.043-15.043v-23.336c0-8.293,6.75-15.043,15.043-15.043
		h18.707c8.293,0,15.043,6.75,15.043,15.043v23.336C531.086,459.386,524.336,466.136,516.043,466.136z"/>
</g>
</svg>
