<?xml version="1.0" encoding="utf-8"?>
<!-- Generator: Adobe Illustrator 16.0.4, SVG Export Plug-In . SVG Version: 6.00 Build 0)  -->
<!DOCTYPE svg PUBLIC "-//W3C//DTD SVG 1.1//EN" "http://www.w3.org/Graphics/SVG/1.1/DTD/svg11.dtd">
<svg version="1.1" id="Layer_1" xmlns="http://www.w3.org/2000/svg" xmlns:xlink="http://www.w3.org/1999/xlink" x="0px" y="0px"
	 width="772px" height="140px" viewBox="128.5 434.5 772 140" enable-background="new 128.5 434.5 772 140" xml:space="preserve">
<g>
	<g>
		<path fill="#FFFFFF" d="M217.136,546.284v9.428c0,1.323-0.441,2.426-1.378,3.363c-0.937,0.937-2.04,1.378-3.363,1.378h-70.625
			c-1.323,0-2.426-0.441-3.363-1.378c-0.938-0.938-1.378-2.04-1.378-3.363v-101.83c0-1.323,0.441-2.427,1.378-3.363
			c0.937-0.938,2.04-1.379,3.363-1.379h11.854c1.323,0,2.426,0.441,3.363,1.379c0.937,0.937,1.378,2.04,1.378,3.363v82.975
			c0,1.323,0.441,2.426,1.378,3.363c0.938,0.937,2.04,1.378,3.363,1.378h49.399c1.323,0,2.426,0.441,3.363,1.379
			C216.695,543.858,217.136,544.961,217.136,546.284z"/>
		<path fill="#FFFFFF" d="M258.65,559.02c-6.064-2.315-11.081-5.458-15.051-9.428c-4.245-4.024-7.498-8.986-9.703-14.721
			c-2.206-5.678-3.363-12.129-3.363-19.296v-25.692c0-1.323,0.441-2.426,1.378-3.363c0.938-0.937,1.985-1.378,3.198-1.378h12.019
			c1.323,0,2.426,0.441,3.363,1.378c0.938,0.938,1.378,2.04,1.378,3.363v25.582c0,5.568,0.938,10.199,2.757,13.838
			c1.819,3.529,4.024,6.451,6.671,8.656c2.812,2.205,5.734,3.694,8.656,4.41c1.599,0.387,3.143,0.717,4.466,0.938
			c1.378,0.221,2.646,0.331,3.859,0.331c2.205,0,4.962-0.386,8.215-1.213c3.143-0.717,6.009-2.15,8.655-4.411
			c2.757-2.149,5.018-5.017,6.837-8.655s2.757-8.271,2.757-13.839v-25.581c0-1.323,0.44-2.426,1.378-3.363s2.04-1.378,3.363-1.378
			h11.743c1.323,0,2.426,0.44,3.363,1.378s1.378,2.04,1.378,3.363v25.691c0,3.528-0.275,6.892-0.827,10.09
			c-0.551,3.197-1.378,6.229-2.48,9.207c-2.205,5.679-5.403,10.585-9.594,14.721c-4.079,3.97-9.041,7.112-15.051,9.428
			c-5.789,2.205-12.35,3.362-19.737,3.362C270.835,562.383,264.329,561.28,258.65,559.02z"/>
		<path fill="#FFFFFF" d="M430.39,487.292c-0.992,2.646-2.205,4.962-3.639,7.002c-1.544,2.15-3.418,3.914-5.789,5.293
			c-0.992,0.717-2.205,1.323-3.474,1.819c-0.992,0.33-1.488,0.551-1.378,0.661c0.11,0.165,0.717,0.386,1.819,0.662
			c1.434,0.496,2.757,0.992,3.97,1.543c2.646,1.323,5.017,3.198,7.167,5.624c2.205,2.315,4.024,5.017,5.293,8.049
			c1.323,2.923,1.984,6.12,1.984,9.594c0,6.064-0.938,11.247-2.756,15.492c-1.93,4.355-4.411,7.773-7.443,10.199
			c-3.032,2.646-6.671,4.466-10.916,5.459c-2.15,0.496-4.301,0.937-6.562,1.213c-2.205,0.33-4.575,0.44-7.002,0.44h-46.642
			c-1.323,0-2.426-0.44-3.363-1.378s-1.379-2.04-1.379-3.363v-101.72c0-1.323,0.441-2.427,1.379-3.363
			c0.938-0.938,2.04-1.379,3.363-1.379h44.216c2.315,0,4.521,0.11,6.562,0.331c2.039,0.221,4.024,0.496,6.064,0.938
			c4.135,0.992,7.608,2.646,10.31,4.852c3.032,2.205,5.348,5.348,7.002,9.428c1.709,3.749,2.591,8.876,2.591,15.327
			C431.713,482.33,431.271,484.756,430.39,487.292z M376.249,494.459h21.447c2.149,0,4.024-0.386,5.623-1.213
			c1.434-0.717,2.757-1.764,3.97-3.197c0.992-1.213,1.819-2.757,2.426-4.576c0.496-1.434,0.771-3.088,0.771-5.018
			c0-1.599-0.33-3.197-0.937-4.686c-0.717-1.71-1.544-3.033-2.426-3.97c-0.938-0.992-2.096-1.93-3.474-2.757
			c-1.323-0.717-2.812-1.048-4.411-1.048h-22.935c-1.323,0-2.426,0.441-3.363,1.379c-0.938,0.937-1.379,2.04-1.379,3.362v17.036
			c0,1.323,0.441,2.427,1.379,3.363C373.823,493.963,374.926,494.459,376.249,494.459z M406.793,540.164
			c1.544-0.717,2.922-1.874,4.245-3.473c1.323-1.544,2.261-3.143,2.867-4.853c0.717-1.543,1.047-3.308,1.047-5.292
			c0-3.639-1.378-6.781-4.079-9.428c-2.646-2.536-6.506-3.805-11.523-3.805h-23.101c-1.323,0-2.426,0.441-3.363,1.379
			c-0.937,0.937-1.378,2.039-1.378,3.362v18.801c0,1.323,0.441,2.426,1.378,3.363c0.938,0.937,2.04,1.378,3.363,1.378h25.361
			C403.54,541.543,405.305,541.102,406.793,540.164z"/>
		<path fill="#FFFFFF" d="M539.938,453.275c-1.103,1.819-2.261,3.749-3.474,5.678c-1.213,1.93-2.535,4.08-3.969,6.285
			c-1.82,2.923-3.694,5.955-5.568,8.987c-1.875,3.032-3.75,6.119-5.68,9.262c-2.039,3.143-3.969,6.23-5.844,9.373
			c-1.874,3.087-3.749,6.12-5.568,9.042c-1.434,2.205-2.757,4.355-4.024,6.396c-1.269,2.04-2.481,4.024-3.584,5.954
			c-0.717,1.103-1.268,2.536-1.653,4.245c-0.387,1.709-0.607,3.253-0.607,4.576v32.693c0,1.323-0.44,2.426-1.378,3.363
			s-2.04,1.379-3.363,1.379h-12.019c-1.323,0-2.426-0.441-3.253-1.379c-0.882-0.938-1.269-2.04-1.269-3.363v-32.693
			c0-1.323-0.22-2.812-0.661-4.576c-0.441-1.709-1.048-3.143-1.765-4.245c-2.922-5.183-5.954-10.255-9.041-15.271
			c-3.088-5.018-6.23-10.034-9.483-15.106c-3.363-5.183-6.561-10.255-9.703-15.272c-3.143-5.017-6.175-10.089-9.097-15.271
			c-0.717-1.103-0.827-2.04-0.387-2.812c0.441-0.772,1.323-1.158,2.646-1.158h15.492c1.323,0,2.646,0.386,4.025,1.158
			c1.378,0.771,2.37,1.709,2.977,2.812c1.93,3.253,3.859,6.506,5.789,9.703c1.93,3.253,3.915,6.561,5.955,9.869
			c1.93,3.363,3.859,6.616,5.788,9.869c1.93,3.252,3.859,6.505,5.789,9.703c0.606,1.103,1.379,1.653,2.371,1.653
			c0.938,0,1.819-0.551,2.481-1.653c0.716-1.213,1.433-2.426,2.205-3.639c0.771-1.213,1.543-2.481,2.37-3.805l7.278-12.295
			c1.213-2.039,2.426-4.024,3.583-6.064c1.158-2.04,2.371-4.024,3.584-6.064c0.827-1.213,1.544-2.426,2.261-3.639
			c0.716-1.213,1.433-2.426,2.149-3.639c0.606-1.103,1.599-2.04,2.978-2.812c1.378-0.772,2.701-1.158,4.024-1.158h15.492
			c1.323,0,2.206,0.386,2.592,1.158C540.655,451.18,540.545,452.117,539.938,453.275z"/>
		<path fill="#FFFFFF" d="M646.786,537.021c-0.992,1.434-2.04,2.812-3.143,4.19c-1.048,1.378-2.205,2.646-3.418,3.859
			c-3.363,3.528-7.277,6.616-11.854,9.262c-2.15,1.323-4.355,2.481-6.671,3.474c-2.316,0.992-4.742,1.875-7.278,2.592
			c-5.183,1.433-10.31,2.149-15.492,2.149c-7.884,0-15.327-1.543-22.328-4.575c-7.002-3.033-13.122-7.168-18.415-12.461
			c-5.183-5.182-9.262-11.247-12.295-18.248c-3.031-7.002-4.575-14.445-4.575-22.329s1.544-15.327,4.575-22.329
			c3.033-6.892,7.168-13.012,12.295-18.414c5.348-5.183,11.523-9.263,18.415-12.295c7.001-3.032,14.444-4.576,22.328-4.576
			c5.183,0,10.31,0.717,15.492,2.15c5.072,1.434,9.704,3.418,14.004,5.954c2.206,1.323,4.355,2.757,6.285,4.355
			c1.985,1.6,3.805,3.198,5.568,4.962c2.536,2.646,4.687,5.293,6.562,8.05c0.717,1.103,0.882,2.205,0.44,3.253
			c-0.386,1.047-1.213,1.874-2.426,2.37l-11.247,4.576c-1.103,0.496-2.371,0.606-3.749,0.221c-1.378-0.331-2.48-1.048-3.253-2.04
			c-0.496-0.496-0.992-1.047-1.544-1.599c-0.496-0.552-0.992-1.103-1.543-1.599c-1.103-1.103-2.261-2.15-3.419-3.032
			c-1.157-0.938-2.426-1.765-3.749-2.592s-2.701-1.543-4.079-2.149c-1.434-0.607-2.812-1.158-4.246-1.654
			c-2.922-0.938-5.954-1.379-9.097-1.379c-4.962,0-9.703,0.993-14.279,3.033c-4.466,2.149-8.27,4.906-11.412,8.38
			c-3.253,3.528-5.845,7.553-7.774,12.019c-1.93,4.576-2.866,9.373-2.866,14.445c0,5.183,0.937,9.979,2.866,14.444
			s4.521,8.436,7.774,12.02c3.143,3.528,6.946,6.285,11.412,8.215c4.355,2.149,9.097,3.197,14.279,3.197
			c3.143,0,6.175-0.441,9.097-1.378c1.434-0.496,2.812-1.048,4.246-1.654c1.433-0.606,2.812-1.323,4.079-2.15
			c1.323-0.827,2.536-1.709,3.749-2.646c1.158-0.937,2.316-1.984,3.419-3.143c0.496-0.496,0.992-1.047,1.543-1.599
			c0.497-0.552,0.993-1.103,1.544-1.599c0.827-0.992,1.875-1.709,3.253-2.15c1.378-0.386,2.591-0.331,3.749,0.165l11.247,4.576
			c1.213,0.496,2.04,1.323,2.426,2.426C647.613,534.762,647.503,535.864,646.786,537.021z"/>
		<path fill="#FFFFFF" d="M717.577,562.548c-7.885,0-15.327-1.543-22.329-4.575c-7.002-3.033-13.122-7.168-18.305-12.405
			c-5.237-5.237-9.372-11.303-12.404-18.304c-3.032-7.002-4.576-14.5-4.576-22.495c0-7.884,1.544-15.382,4.576-22.438
			s7.167-13.177,12.404-18.414c5.238-5.238,11.303-9.373,18.305-12.405s14.444-4.576,22.329-4.576
			c7.994,0,15.492,1.544,22.494,4.576s13.066,7.167,18.304,12.405c5.237,5.237,9.373,11.357,12.405,18.414s4.576,14.5,4.576,22.438
			c0,7.995-1.544,15.493-4.576,22.495c-3.032,7.001-7.168,13.121-12.405,18.304c-5.237,5.237-11.302,9.372-18.304,12.405
			C733.069,561.005,725.626,562.548,717.577,562.548z M717.688,466.948c-5.072,0-9.759,1.047-14.17,3.143
			c-4.41,2.095-8.215,4.852-11.522,8.27s-5.899,7.498-7.829,12.074c-1.93,4.631-2.866,9.372-2.866,14.334
			c0,5.072,0.937,9.869,2.866,14.445s4.521,8.601,7.829,12.074s7.112,6.285,11.522,8.38c4.411,2.095,9.152,3.143,14.17,3.143
			c5.072,0,9.758-1.048,14.169-3.143c4.41-2.095,8.215-4.852,11.522-8.38c3.308-3.474,5.899-7.498,7.829-12.074
			s2.866-9.373,2.866-14.445c0-4.962-0.937-9.758-2.866-14.334c-1.93-4.631-4.521-8.656-7.829-12.074s-7.112-6.23-11.522-8.27
			C727.445,467.995,722.704,466.948,717.688,466.948z"/>
		<path fill="#FFFFFF" d="M815.493,498.98v56.676c0,1.323-0.441,2.426-1.379,3.363s-2.04,1.379-3.363,1.379h-12.019
			c-1.213,0-2.261-0.441-3.198-1.379c-0.937-0.938-1.378-2.04-1.378-3.363V451.731c0-1.323,0.606-2.096,1.875-2.371
			c1.268-0.275,2.37,0,3.252,0.827l66.711,63.072c0.992,0.937,1.875,1.213,2.481,0.937c0.661-0.33,0.992-1.103,0.992-2.426v-57.779
			c0-1.323,0.441-2.426,1.378-3.362c0.938-0.938,2.04-1.379,3.363-1.379h11.854c1.323,0,2.426,0.441,3.363,1.379
			c0.938,0.937,1.379,2.039,1.379,3.362v103.815c0,1.323-0.662,2.096-1.875,2.371c-1.268,0.275-2.426,0-3.418-0.827l-66.546-62.024
			c-0.992-0.827-1.874-1.048-2.48-0.771C815.769,496.885,815.493,497.712,815.493,498.98z"/>
	</g>
	<path fill="#FFFFFF" d="M247.403,472.627h-12.46c-2.426,0-4.41-1.985-4.41-4.411v-14.5c0-2.426,1.984-4.41,4.41-4.41h12.46
		c2.426,0,4.411,1.984,4.411,4.41v14.5C251.814,470.642,249.829,472.627,247.403,472.627z"/>
	<path fill="#FFFFFF" d="M321.558,472.627h-12.46c-2.426,0-4.411-1.985-4.411-4.411v-14.5c0-2.426,1.985-4.41,4.411-4.41h12.46
		c2.426,0,4.41,1.984,4.41,4.41v14.5C325.968,470.642,323.983,472.627,321.558,472.627z"/>
</g>
</svg>
